<svg width="1200" height="420" viewBox="0 0 1200 420" xmlns="http://www.w3.org/2000/svg">
  <defs>
    <linearGradient id="sky" x1="0" y1="0" x2="1" y2="1"><stop offset="0%" stop-color="#080b12"/><stop offset="45%" stop-color="#101827"/><stop offset="100%" stop-color="#3a2b1d"/></linearGradient>
    <radialGradient id="moon" cx="78%" cy="18%" r="30%"><stop offset="0%" stop-color="#f8dca0" stop-opacity=".85"/><stop offset="45%" stop-color="#f8dca0" stop-opacity=".12"/><stop offset="100%" stop-color="#f8dca0" stop-opacity="0"/></radialGradient>
    <linearGradient id="gold" x1="0" x2="1"><stop offset="0%" stop-color="#c4944c"/><stop offset="50%" stop-color="#f5d38a"/><stop offset="100%" stop-color="#8b5e34"/></linearGradient>
    <filter id="glow"><feGaussianBlur stdDeviation="4" result="blur"/><feMerge><feMergeNode in="blur"/><feMergeNode in="SourceGraphic"/></feMerge></filter>
    <filter id="shadow"><feDropShadow dx="0" dy="12" stdDeviation="16" flood-color="#000" flood-opacity=".65"/></filter>
  </defs>
  <rect width="1200" height="420" fill="url(#sky)"/><rect width="1200" height="420" fill="url(#moon)"/>
  <path d="M0 265 L95 180 L150 235 L250 125 L330 250 L430 160 L510 255 L620 120 L760 270 L850 160 L930 245 L1045 135 L1200 270 L1200 420 L0 420 Z" fill="#0b111d" opacity=".95"/>
  <path d="M0 305 L130 220 L235 315 L360 185 L480 310 L620 210 L730 310 L875 190 L1005 315 L1120 230 L1200 305 L1200 420 L0 420 Z" fill="#111827" opacity=".92"/>
  <g transform="translate(545 116)" opacity=".9"><path d="M0 160 L0 80 L18 80 L18 42 L32 42 L32 80 L55 80 L55 20 L70 0 L85 20 L85 80 L112 80 L112 50 L128 50 L128 80 L145 80 L145 160 Z" fill="#070a10"/><rect x="25" y="102" width="14" height="58" fill="#0d1320"/><rect x="63" y="92" width="18" height="68" fill="#0d1320"/><rect x="104" y="108" width="14" height="52" fill="#0d1320"/></g>
  <g transform="translate(865 190)" opacity=".95"><path d="M48 12 C60 16 68 30 65 45 C61 65 44 73 30 63 C16 52 16 31 27 19 C32 13 39 10 48 12Z" fill="#05070b"/><path d="M38 62 L22 175 L72 175 L55 62 Z" fill="#05070b"/><path d="M55 70 C105 95 130 142 150 195 C104 175 74 145 48 96 Z" fill="#05070b"/><path d="M28 88 L2 168 L16 168 L45 92 Z" fill="#05070b"/><path d="M60 91 L98 168 L84 168 L48 96 Z" fill="#05070b"/></g>
  <rect x="24" y="24" width="1152" height="372" rx="18" fill="none" stroke="url(#gold)" stroke-width="2" opacity=".8"/><rect x="38" y="38" width="1124" height="344" rx="12" fill="none" stroke="#6b4e2e" stroke-width="1" opacity=".5"/>
  <path d="M560 24 L600 48 L640 24" fill="none" stroke="url(#gold)" stroke-width="2"/><path d="M560 396 L600 372 L640 396" fill="none" stroke="url(#gold)" stroke-width="2"/>
  <g transform="translate(75 80)" filter="url(#shadow)"><path d="M70 0 L130 32 L120 116 L70 150 L20 116 L10 32 Z" fill="#14100b" stroke="url(#gold)" stroke-width="4"/><path d="M70 18 L112 42 L104 106 L70 130 L36 106 L28 42 Z" fill="#1f2937" stroke="#6b4e2e" stroke-width="2"/><text x="70" y="92" text-anchor="middle" font-family="Georgia, serif" font-size="62" font-weight="700" fill="#f5d38a">M</text></g>
  <text x="230" y="140" font-family="Georgia, serif" font-size="68" font-weight="700" fill="#f5d38a" letter-spacing="4" filter="url(#glow)">MAPLE</text>
  <text x="234" y="185" font-family="Inter,Segoe UI,Arial,sans-serif" font-size="24" fill="#f3ead7">SDE @ AWS · Seattle, WA</text>
  <text x="234" y="225" font-family="Inter,Segoe UI,Arial,sans-serif" font-size="22" fill="#cbd5e1">Builder of AI-native products with clean UX</text>
  <g transform="translate(232 262)"><text x="0" y="18" font-family="Inter,Arial" font-size="15" fill="#f3ead7">HP</text><rect x="36" y="3" width="310" height="20" rx="5" fill="#101827" stroke="#6b4e2e"/><rect x="38" y="5" width="285" height="16" rx="4" fill="#9f3030"/><text x="360" y="19" font-family="Inter,Arial" font-size="15" fill="#f3ead7">100 / 100</text><text x="0" y="54" font-family="Inter,Arial" font-size="15" fill="#f3ead7">XP</text><rect x="36" y="39" width="310" height="20" rx="5" fill="#101827" stroke="#6b4e2e"/><rect x="38" y="41" width="235" height="16" rx="4" fill="#2c72b8"/><text x="360" y="55" font-family="Inter,Arial" font-size="15" fill="#f3ead7">2360 / 3200</text></g>
  <g transform="translate(875 78)" filter="url(#shadow)"><rect width="250" height="172" rx="12" fill="#120f0a" opacity=".88" stroke="#8b5e34"/><text x="28" y="42" font-family="Georgia,serif" font-size="21" fill="#f5d38a">Current Quest</text><line x1="24" y1="58" x2="226" y2="58" stroke="#6b4e2e" opacity=".55"/><text x="28" y="88" font-family="Inter,Arial" font-size="15" fill="#e5e7eb">Build useful things</text><text x="28" y="112" font-family="Inter,Arial" font-size="15" fill="#e5e7eb">that create real impact.</text><rect x="28" y="136" width="194" height="14" rx="4" fill="#080b12" stroke="#6b4e2e"/><rect x="30" y="138" width="150" height="10" rx="3" fill="#c4944c"/><text x="184" y="128" font-family="Inter,Arial" font-size="13" fill="#f5d38a">75%</text></g>
</svg>
